<?xml version="1.0" standalone="no"?><!DOCTYPE svg PUBLIC "-//W3C//DTD SVG 1.1//EN" "http://www.w3.org/Graphics/SVG/1.1/DTD/svg11.dtd"><svg class="icon" height="512" viewBox="0 0 1024 1024" version="1.1" xmlns="http://www.w3.org/2000/svg"><path d="M516.4544 1018.7776a494.08 494.08 0 0 1-351.6928-145.664 494.0544 494.0544 0 0 1-145.664-351.6928c0-132.864 51.712-257.7408 145.664-351.6928A494.08 494.08 0 0 1 516.4544 24.064c132.864 0 257.7408 51.712 351.6928 145.664 12.1856 12.1856 23.6288 24.9856 34.432 38.2464l4.2752-87.7824a39.4752 39.4752 0 0 1 78.848 3.84l-8.8064 181.2736a39.296 39.296 0 0 1-17.8688 31.1552c-9.6512 10.0608-20.4288 14.5408-32.1024 13.8752l-181.248-10.0096a39.4752 39.4752 0 1 1 4.3776-78.7968l98.5088 5.4272a421.504 421.504 0 0 0-36.224-41.4208c-163.1488-163.1488-428.6208-163.1488-591.7696 0-163.1488 163.1488-163.1488 428.5952 0 591.744a417.1008 417.1008 0 0 0 294.2976 122.368l1.5872 79.1296zM652.8 998.4a38.4 38.4 0 1 1 0-76.8 38.4 38.4 0 0 1 0 76.8z m153.6-76.8a38.4 38.4 0 1 1 0-76.8 38.4 38.4 0 0 1 0 76.8z m102.4-102.4a38.4 38.4 0 1 1 0-76.8 38.4 38.4 0 0 1 0 76.8z m51.2-128a38.4 38.4 0 1 1 0-76.8 38.4 38.4 0 0 1 0 76.8z m25.6-153.6a38.4 38.4 0 1 1 0-76.8 38.4 38.4 0 0 1 0 76.8z m-485.3248-230.4c21.7856 0 39.4752 17.664 39.4752 39.4752v198.912h198.912a39.4752 39.4752 0 0 1 0 78.9504h-238.3872c-21.7856 0-39.4752-17.664-39.4752-39.4752v-238.3872c0-21.8112 17.6896-39.4752 39.4752-39.4752z" fill="#666666" /></svg>